<svg width="32" height="32" viewBox="0 0 32 32" fill="none" xmlns="http://www.w3.org/2000/svg">
  <!-- Background Circle -->
  <circle cx="16" cy="16" r="16" fill="url(#gradient)" />
  
  <!-- Shield Icon -->
  <path d="M16 4L22 7V13C22 17.5 19 21.6 16 22C13 21.6 10 17.5 10 13V7L16 4Z" fill="white" opacity="0.9"/>
  
  <!-- Heart Icon (smaller, centered) -->
  <path d="M16 19.5C16 19.5 12.5 16.5 12.5 14C12.5 12.5 13.5 11.5 15 11.5C15.5 11.5 16 11.7 16 12C16 11.7 16.5 11.5 17 11.5C18.5 11.5 19.5 12.5 19.5 14C19.5 16.5 16 19.5 16 19.5Z" fill="#EF4444"/>
  
  <!-- Medical Cross -->
  <rect x="15" y="8" width="2" height="8" fill="white" opacity="0.8"/>
  <rect x="12" y="11" width="8" height="2" fill="white" opacity="0.8"/>
  
  <!-- Gradient Definition -->
  <defs>
    <linearGradient id="gradient" x1="0%" y1="0%" x2="100%" y2="100%">
      <stop offset="0%" style="stop-color:#3B82F6;stop-opacity:1" />
      <stop offset="50%" style="stop-color:#06B6D4;stop-opacity:1" />
      <stop offset="100%" style="stop-color:#10B981;stop-opacity:1" />
    </linearGradient>
  </defs>
</svg>
